<?xml version="1.0" standalone="no"?>
<!DOCTYPE svg PUBLIC "-//W3C//DTD SVG 20010904//EN"
 "http://www.w3.org/TR/2001/REC-SVG-20010904/DTD/svg10.dtd">
<svg version="1.0" xmlns="http://www.w3.org/2000/svg"
 width="96.000000pt" height="96.000000pt" viewBox="0 0 96.000000 96.000000"
 preserveAspectRatio="xMidYMid meet">

<g transform="translate(0.000000,96.000000) scale(0.100000,-0.100000)"
fill="#000000" stroke="none">
<path d="M374 857 c-34 -29 -62 -56 -62 -62 -1 -5 14 -9 33 -7 19 2 35 0 35
-3 0 -17 -79 -126 -128 -177 -30 -32 -52 -61 -48 -65 4 -4 42 10 84 31 58 30
98 60 159 123 60 61 89 83 108 83 14 0 25 3 25 6 0 3 -24 32 -52 65 -33 37
-60 59 -73 58 -11 0 -48 -24 -81 -52z"/>
<path d="M582 683 c-24 -3 -45 -10 -48 -18 -3 -8 -1 -74 5 -147 6 -73 14 -166
17 -205 l6 -73 68 0 c38 0 81 5 95 10 25 10 27 13 22 63 -22 273 -30 354 -33
365 -3 12 -37 13 -132 5z m121 -105 c4 -51 12 -139 19 -196 10 -88 10 -105 -3
-113 -12 -7 -139 -14 -139 -6 0 1 -7 83 -15 182 -8 99 -15 188 -15 197 0 17
22 22 111 26 l36 2 6 -92z"/>
<path d="M378 583 l-28 -4 0 -163 c0 -113 4 -166 12 -174 7 -7 42 -12 85 -12
58 0 75 3 80 16 6 17 -22 318 -32 334 -6 10 -62 11 -117 3z m102 -20 c0 -5 7
-66 15 -138 22 -193 27 -176 -52 -173 l-68 3 -3 152 c-2 138 -1 152 15 156 30
8 93 7 93 0z"/>
<path d="M208 493 l-48 -4 0 -135 0 -134 80 0 81 0 -3 138 -3 137 -30 1 c-16
0 -51 -1 -77 -3z"/>
<path d="M635 219 c-55 -5 -189 -10 -299 -11 -158 -1 -199 -5 -203 -16 -13
-33 21 -43 158 -49 130 -5 427 9 461 22 25 10 32 38 12 52 -10 7 -20 12 -23
12 -3 -1 -51 -6 -106 -10z"/>
</g>
</svg>
