<?xml version="1.0" standalone="no"?>
<!DOCTYPE svg PUBLIC "-//W3C//DTD SVG 20010904//EN"
 "http://www.w3.org/TR/2001/REC-SVG-20010904/DTD/svg10.dtd">
<svg version="1.0" xmlns="http://www.w3.org/2000/svg"
 width="96.000000pt" height="96.000000pt" viewBox="0 0 96.000000 96.000000"
 preserveAspectRatio="xMidYMid meet">

<g transform="translate(0.000000,96.000000) scale(0.100000,-0.100000)"
fill="#000000" stroke="none">
<path d="M385 810 c-141 -15 -261 -78 -315 -166 -31 -49 -34 -173 -7 -252 20
-57 61 -112 83 -112 8 0 14 -4 14 -8 0 -12 -71 -78 -99 -92 -39 -20 -8 -34 77
-35 65 0 84 4 124 27 40 22 53 25 85 18 96 -21 240 -32 297 -21 85 16 170 58
215 106 50 54 65 117 59 241 -9 165 -57 228 -210 275 -75 23 -213 31 -323 19z
m339 -48 c102 -33 137 -67 161 -156 21 -79 17 -224 -8 -272 -21 -41 -80 -92
-132 -114 -101 -43 -180 -46 -363 -14 -79 14 -84 14 -110 -4 -43 -31 -156 -55
-174 -37 -3 3 15 25 38 49 51 50 55 70 17 88 -38 19 -60 55 -79 128 -18 71
-14 152 11 199 21 41 81 90 150 123 116 54 343 59 489 10z"/>
<path d="M273 629 c-18 -5 -33 -14 -33 -20 0 -8 9 -8 28 -3 31 10 216 6 280
-6 48 -9 212 -1 212 10 0 4 -73 10 -162 13 -90 4 -192 9 -228 12 -36 2 -80 0
-97 -6z"/>
<path d="M280 523 c-65 -12 -30 -21 96 -24 249 -5 334 -4 334 4 0 4 -60 9
-132 12 -73 3 -164 7 -203 9 -38 2 -81 2 -95 -1z"/>
<path d="M250 410 c0 -6 48 -10 125 -10 77 0 125 4 125 10 0 6 -48 10 -125 10
-77 0 -125 -4 -125 -10z"/>
</g>
</svg>
