<?xml version="1.0" standalone="no"?>
<!DOCTYPE svg PUBLIC "-//W3C//DTD SVG 20010904//EN"
 "http://www.w3.org/TR/2001/REC-SVG-20010904/DTD/svg10.dtd">
<svg version="1.0" xmlns="http://www.w3.org/2000/svg"
 width="100.000000pt" height="100.000000pt" viewBox="0 0 100.000000 100.000000"
 preserveAspectRatio="xMidYMid meet">

<g transform="translate(0.000000,100.000000) scale(0.100000,-0.100000)"
fill="#000000" stroke="none">
<path d="M425 686 c-61 -28 -107 -78 -130 -142 -10 -27 -26 -58 -34 -69 -15
-18 -15 -19 2 -6 15 12 17 11 17 -16 0 -41 18 -92 47 -130 l23 -32 46 32 c38
27 56 32 117 35 71 4 72 4 55 -15 -10 -11 -18 -23 -18 -26 0 -13 35 29 48 57
11 25 16 28 47 23 28 -5 37 -2 45 14 7 12 21 19 42 19 l31 0 -20 -22 c-11 -13
-19 -28 -16 -34 5 -16 -102 -114 -126 -114 -11 0 -27 7 -35 16 -9 8 -16 11
-16 4 0 -6 11 -15 24 -21 14 -7 22 -17 20 -24 -7 -17 13 -29 22 -14 4 8 3 9
-4 5 -16 -9 -15 7 0 22 18 18 31 15 23 -6 -5 -14 -4 -15 6 -4 7 6 29 13 49 13
33 2 34 2 5 6 -16 3 -34 9 -40 15 -7 7 -6 9 1 5 6 -3 28 12 49 33 27 28 45 38
57 34 10 -3 18 -1 18 5 0 6 10 16 22 22 17 9 24 9 32 -2 6 -8 23 -20 39 -26
18 -9 27 -20 27 -37 0 -35 -18 -45 -90 -49 l-65 -3 67 -2 c74 -2 98 11 98 54
0 17 -11 31 -40 49 -22 14 -40 28 -40 31 0 3 9 19 20 34 37 53 -9 84 -57 38
l-23 -21 0 44 c-1 61 -29 117 -83 165 -77 68 -172 82 -262 40z m193 -12 c73
-30 124 -99 137 -186 7 -44 6 -46 -13 -41 -14 3 -29 -3 -44 -18 -17 -17 -33
-23 -54 -21 -19 2 -36 -3 -44 -12 -8 -10 -29 -16 -59 -16 -60 0 -110 -15 -154
-44 -40 -28 -46 -25 -73 39 -45 109 3 242 109 294 51 25 141 28 195 5z m122
-317 c0 -2 -19 -21 -42 -42 l-43 -40 40 43 c36 39 45 47 45 39z"/>
<path d="M500 676 c0 -10 28 -13 41 -5 10 6 7 9 -13 9 -16 0 -28 -2 -28 -4z"/>
<path d="M450 660 c-18 -12 -2 -12 25 0 13 6 15 9 5 9 -8 0 -22 -4 -30 -9z"/>
<path d="M568 663 c7 -3 16 -2 19 1 4 3 -2 6 -13 5 -11 0 -14 -3 -6 -6z"/>
<path d="M624 641 c16 -11 42 -34 58 -53 18 -20 26 -24 19 -11 -12 24 -80 83
-96 83 -5 0 3 -9 19 -19z"/>
<path d="M390 624 c-17 -15 -37 -39 -45 -55 -25 -47 -17 -46 13 2 16 24 39 52
53 61 13 9 21 17 17 17 -3 1 -20 -11 -38 -25z"/>
<path d="M476 622 c-3 -5 -1 -40 5 -78 6 -38 12 -84 15 -101 4 -25 10 -33 25
-33 28 0 32 20 15 81 -8 30 -20 73 -26 97 -10 40 -23 52 -34 34z"/>
<path d="M716 525 c3 -16 7 -35 9 -42 3 -9 -20 -13 -78 -16 l-82 -3 88 -2 89
-2 -7 33 c-4 17 -11 39 -16 47 -6 10 -7 5 -3 -15z"/>
<path d="M322 500 c0 -14 2 -19 5 -12 2 6 2 18 0 25 -3 6 -5 1 -5 -13z"/>
<path d="M358 463 c23 -2 59 -2 80 0 20 2 1 4 -43 4 -44 0 -61 -2 -37 -4z"/>
<path d="M183 424 c-37 -28 -41 -45 -16 -65 15 -13 15 -12 3 8 -11 18 -12 24
-1 37 8 9 20 16 27 16 8 0 14 4 14 9 0 5 10 12 23 14 19 4 19 4 2 6 -11 0 -35
-11 -52 -25z"/>
<path d="M213 343 c15 -2 37 -2 50 0 12 2 0 4 -28 4 -27 0 -38 -2 -22 -4z"/>
<path d="M436 314 c-20 -20 -21 -68 -1 -84 19 -16 61 -16 80 0 20 16 19 64 -1
84 -8 9 -26 16 -39 16 -13 0 -31 -7 -39 -16z m65 -4 c37 -20 18 -80 -26 -80
-43 0 -63 58 -27 79 22 13 29 13 53 1z"/>
<path d="M452 298 c-7 -7 -12 -19 -11 -27 0 -10 4 -7 9 7 5 12 16 22 25 22 9
0 20 -10 25 -22 5 -14 9 -17 9 -7 1 17 -18 39 -34 39 -6 0 -16 -5 -23 -12z"/>
<path d="M463 243 c9 -2 23 -2 30 0 6 3 -1 5 -18 5 -16 0 -22 -2 -12 -5z"/>
</g>
</svg>
